<?xml version="1.0" standalone="no"?>
<!DOCTYPE svg PUBLIC "-//W3C//DTD SVG 20010904//EN"
 "http://www.w3.org/TR/2001/REC-SVG-20010904/DTD/svg10.dtd">
<svg version="1.0" xmlns="http://www.w3.org/2000/svg"
 width="787.000000pt" height="787.000000pt" viewBox="0 0 787.000000 787.000000"
 preserveAspectRatio="xMidYMid meet">
<metadata>
Created by potrace 1.16, written by Peter Selinger 2001-2019
</metadata>
<g transform="translate(0.000000,787.000000) scale(0.100000,-0.100000)"
fill="#9f9f9f" stroke="none">
<path d="M3635 7864 c-16 -2 -79 -9 -140 -15 -588 -59 -1201 -279 -1714 -616
-915 -600 -1543 -1551 -1725 -2615 -45 -260 -51 -338 -51 -683 0 -345 6 -423
51 -683 182 -1063 810 -2015 1724 -2615 515 -337 1077 -540 1720 -619 141 -17
729 -17 870 0 343 42 640 113 940 224 1303 484 2270 1645 2504 3010 45 260 51
338 51 683 0 345 -6 423 -51 683 -199 1162 -923 2177 -1969 2763 -433 242
-894 393 -1427 465 -107 15 -706 28 -783 18z m529 -174 c390 -27 731 -100
1086 -231 154 -58 433 -190 577 -275 835 -489 1451 -1279 1722 -2207 196 -670
196 -1414 0 -2084 -183 -625 -528 -1201 -990 -1648 -311 -302 -609 -509 -1002
-700 -917 -445 -1970 -493 -2937 -134 -154 58 -433 190 -577 275 -835 489
-1451 1279 -1722 2207 -196 670 -196 1414 0 2084 183 625 528 1201 990 1648
311 302 609 509 1002 700 577 280 1224 407 1851 365z"/>
<path d="M2128 6014 c-77 -24 -167 -92 -215 -162 -66 -96 -75 -142 -71 -345 3
-169 3 -173 35 -239 56 -119 154 -201 277 -234 71 -19 305 -18 379 1 127 33
216 106 274 223 l38 76 3 167 c4 182 -6 243 -54 325 -35 60 -125 141 -191 172
-56 26 -65 27 -243 29 -141 2 -196 -1 -232 -13z m368 -169 c66 -19 121 -67
150 -129 21 -46 24 -65 24 -191 0 -164 -10 -196 -82 -262 -59 -54 -96 -63
-251 -63 -175 0 -234 26 -292 131 -29 53 -30 57 -30 194 0 127 2 145 23 187
29 59 92 114 152 133 61 19 243 19 306 0z"/>
<path d="M3350 5530 l0 -170 1340 0 1340 0 0 170 0 170 -1340 0 -1340 0 0
-170z"/>
<path d="M2151 4344 c-123 -33 -218 -113 -274 -232 l-32 -67 0 -195 0 -195 34
-70 c66 -134 184 -217 339 -237 94 -12 271 -3 339 17 124 37 236 149 274 277
19 60 21 88 17 236 -3 163 -4 169 -34 232 -58 120 -156 203 -279 235 -78 20
-308 20 -384 -1z m351 -176 c51 -15 126 -82 149 -133 15 -33 19 -66 19 -180 0
-126 -3 -145 -24 -191 -29 -62 -84 -110 -150 -129 -77 -23 -252 -20 -320 5
-60 23 -118 78 -143 139 -21 48 -29 220 -14 293 20 92 80 166 160 194 46 17
270 18 323 2z"/>
<path d="M3350 3850 l0 -170 1340 0 1340 0 0 170 0 170 -1340 0 -1340 0 0
-170z"/>
<path d="M2122 2661 c-110 -38 -203 -125 -254 -237 -20 -44 -23 -68 -26 -221
-3 -138 0 -184 13 -230 33 -116 117 -211 233 -266 65 -31 73 -32 222 -35 98
-3 174 0 210 8 128 28 235 115 293 238 31 66 32 70 35 237 4 153 2 176 -18
234 -38 114 -123 210 -228 259 -54 25 -66 27 -242 29 -160 3 -192 1 -238 -16z
m415 -184 c28 -15 63 -42 77 -60 48 -63 56 -96 56 -244 0 -155 -11 -192 -71
-252 -60 -60 -97 -71 -252 -71 -186 0 -244 25 -301 130 -25 46 -29 66 -34 159
-6 128 8 205 48 259 64 89 132 113 305 109 107 -3 126 -6 172 -30z"/>
<path d="M3350 2175 l0 -175 1340 0 1340 0 0 175 0 175 -1340 0 -1340 0 0
-175z"/>
</g>
</svg>
