<?xml version="1.0" standalone="no"?>
<!DOCTYPE svg PUBLIC "-//W3C//DTD SVG 20010904//EN"
 "http://www.w3.org/TR/2001/REC-SVG-20010904/DTD/svg10.dtd">
<svg version="1.0" xmlns="http://www.w3.org/2000/svg"
 width="787.000000pt" height="787.000000pt" viewBox="0 0 787.000000 787.000000"
 preserveAspectRatio="xMidYMid meet">
<metadata>
Created by potrace 1.16, written by Peter Selinger 2001-2019
</metadata>
<g transform="translate(0.000000,787.000000) scale(0.100000,-0.100000)"
fill="#9f9f9f" stroke="none">
<path d="M3625 7844 c-162 -16 -325 -40 -471 -69 -1534 -310 -2749 -1525
-3059 -3059 -62 -308 -70 -402 -70 -786 0 -377 8 -475 66 -765 305 -1546 1522
-2769 3063 -3080 308 -62 402 -70 786 -70 384 0 478 8 786 70 1539 311 2764
1541 3063 3078 58 298 66 390 66 767 0 377 -8 475 -66 765 -305 1546 -1523
2770 -3063 3080 -293 58 -388 67 -741 70 -176 2 -338 1 -360 -1z m725 -189
c1110 -125 2099 -732 2715 -1665 342 -518 538 -1067 606 -1700 17 -151 17
-562 1 -720 -127 -1227 -832 -2304 -1905 -2910 -439 -248 -935 -404 -1467
-462 -148 -16 -572 -16 -720 0 -915 100 -1720 493 -2345 1144 -523 545 -874
1249 -994 1988 -35 219 -45 349 -45 600 0 251 10 381 45 600 181 1118 874
2106 1872 2670 286 161 610 289 942 371 210 52 373 76 695 103 91 8 469 -4
600 -19z"/>
<path d="M3890 6323 l-1735 -145 -45 -27 c-25 -15 -54 -44 -67 -66 l-23 -40 0
-2198 c0 -2137 1 -2199 19 -2235 22 -42 43 -63 88 -86 30 -15 176 -16 1683
-16 1360 0 1657 2 1683 14 71 29 117 111 117 208 0 52 -1 52 88 62 59 6 115
45 141 98 l21 44 0 2192 c0 1523 -3 2199 -11 2219 -25 67 -111 123 -184 122
-22 -1 -821 -66 -1775 -146z m1790 -2192 l0 -2158 -37 -7 c-21 -3 -57 -6 -80
-6 l-43 0 -2 2053 -3 2054 -28 36 c-56 74 -38 71 -557 77 l-465 5 580 51 c319
29 592 52 608 53 l27 1 0 -2159z m-345 -286 l0 -2160 -1565 0 -1565 0 -3 2154
c-2 1717 0 2156 10 2163 7 4 713 7 1568 5 l1555 -2 0 -2160z"/>
<path d="M3615 5509 c-354 -51 -670 -286 -825 -612 -167 -350 -131 -771 91
-1092 59 -86 199 -223 282 -278 551 -364 1288 -171 1582 413 75 149 104 263
112 436 7 150 -6 257 -44 379 -124 396 -463 689 -870 750 -106 16 -233 18
-328 4z m408 -203 c395 -118 659 -469 659 -876 0 -436 -307 -808 -741 -895
-121 -25 -294 -16 -416 19 -316 95 -550 335 -637 657 -32 120 -32 318 0 438
95 350 360 602 712 677 106 22 315 12 423 -20z"/>
<path d="M2795 2664 c-43 -22 -64 -44 -87 -88 -17 -33 -19 -54 -16 -161 3
-121 4 -124 34 -162 17 -21 46 -47 65 -58 33 -20 52 -20 974 -20 517 0 952 3
967 8 42 11 95 63 113 111 13 34 16 69 13 153 -3 100 -5 113 -31 151 -15 23
-45 51 -67 62 -39 20 -56 20 -987 20 -840 0 -951 -2 -978 -16z m1883 -166 c12
-12 17 -104 6 -132 -6 -14 -95 -16 -909 -16 -814 0 -903 2 -909 16 -11 28 -6
120 6 132 17 17 1789 17 1806 0z"/>
</g>
</svg>
