<?xml version="1.0" standalone="no"?>
<!DOCTYPE svg PUBLIC "-//W3C//DTD SVG 20010904//EN"
 "http://www.w3.org/TR/2001/REC-SVG-20010904/DTD/svg10.dtd">
<svg version="1.0" xmlns="http://www.w3.org/2000/svg"
 width="787.000000pt" height="787.000000pt" viewBox="0 0 787.000000 787.000000"
 preserveAspectRatio="xMidYMid meet">
<metadata>
Created by potrace 1.16, written by Peter Selinger 2001-2019
</metadata>
<g transform="translate(0.000000,787.000000) scale(0.100000,-0.100000)"
fill="#9f9f9f" stroke="none">
<path d="M3610 7824 c-19 -2 -78 -9 -130 -15 -469 -52 -956 -202 -1370 -421
-613 -325 -1139 -818 -1504 -1411 -284 -461 -461 -966 -543 -1547 -25 -180
-25 -780 0 -960 83 -592 261 -1094 556 -1568 364 -586 891 -1075 1503 -1396
411 -216 850 -351 1363 -418 136 -18 734 -18 870 0 514 68 955 203 1365 419
885 467 1552 1243 1873 2179 88 256 143 490 184 784 25 180 25 780 0 960 -126
893 -491 1640 -1102 2255 -621 625 -1359 989 -2271 1121 -103 15 -701 28 -794
18z m730 -188 c555 -68 1057 -243 1523 -530 903 -556 1532 -1484 1711 -2526
42 -241 51 -351 51 -630 0 -279 -9 -389 -51 -630 -265 -1539 -1485 -2759
-3024 -3024 -241 -42 -351 -51 -630 -51 -279 0 -389 9 -630 51 -1539 265
-2759 1485 -3024 3024 -42 241 -51 351 -51 630 0 279 9 389 51 630 229 1330
1179 2443 2459 2880 262 89 562 155 815 179 63 6 133 13 155 15 88 9 527 -4
645 -18z"/>
<path d="M1797 6180 c-106 -19 -199 -90 -245 -188 l-27 -57 0 -830 0 -830 29
-58 c35 -68 98 -130 164 -160 47 -22 51 -22 717 -22 l670 0 63 34 c93 51 149
125 171 229 15 70 16 1536 1 1613 -21 110 -90 198 -194 246 l-61 28 -620 2
c-341 0 -641 -3 -668 -7z m1299 -196 c15 -11 37 -33 48 -48 21 -27 21 -37 24
-818 l2 -790 -22 -39 c-12 -22 -38 -50 -58 -62 l-35 -22 -620 0 c-607 0 -621
0 -655 21 -19 11 -45 35 -57 54 l-23 33 0 789 c0 849 -2 815 52 865 12 12 34
26 48 32 16 6 247 9 647 8 611 -2 622 -2 649 -23z"/>
<path d="M3670 6020 l0 -170 1325 0 1325 0 0 170 0 170 -1325 0 -1325 0 0
-170z"/>
<path d="M3670 5020 l0 -170 1325 0 1325 0 0 170 0 170 -1325 0 -1325 0 0
-170z"/>
<path d="M3670 4030 l0 -170 1325 0 1325 0 0 170 0 170 -1325 0 -1325 0 0
-170z"/>
<path d="M1520 3040 l0 -170 2400 0 2400 0 0 170 0 170 -2400 0 -2400 0 0
-170z"/>
<path d="M1520 2050 l0 -170 2400 0 2400 0 0 170 0 170 -2400 0 -2400 0 0
-170z"/>
</g>
</svg>
