<?xml version="1.0" standalone="no"?>
<!DOCTYPE svg PUBLIC "-//W3C//DTD SVG 20010904//EN"
 "http://www.w3.org/TR/2001/REC-SVG-20010904/DTD/svg10.dtd">
<svg version="1.0" xmlns="http://www.w3.org/2000/svg"
 width="787.000000pt" height="787.000000pt" viewBox="0 0 787.000000 787.000000"
 preserveAspectRatio="xMidYMid meet">
<metadata>
Created by potrace 1.16, written by Peter Selinger 2001-2019
</metadata>
<g transform="translate(0.000000,787.000000) scale(0.100000,-0.100000)"
fill="#9f9f9f" stroke="none">
<path d="M3625 7814 c-259 -26 -441 -57 -660 -114 -541 -140 -1024 -383 -1469
-738 -155 -123 -465 -433 -588 -588 -461 -578 -734 -1222 -835 -1964 -26 -195
-26 -765 0 -960 101 -742 374 -1386 835 -1964 123 -155 433 -465 588 -588 578
-461 1221 -734 1964 -835 195 -26 765 -26 960 0 743 101 1386 374 1964 835
155 123 465 433 588 588 461 578 734 1222 835 1964 26 195 26 765 0 960 -101
742 -374 1386 -835 1964 -123 155 -433 465 -588 588 -575 458 -1212 730 -1954
834 -110 15 -699 28 -805 18z m586 -174 c673 -53 1338 -292 1877 -677 298
-212 607 -513 828 -808 842 -1119 978 -2629 350 -3883 -272 -542 -683 -1023
-1178 -1375 -867 -618 -1989 -834 -3018 -582 -670 165 -1260 496 -1746 980
-308 307 -521 600 -710 977 -628 1254 -492 2764 350 3883 221 295 530 596 828
808 460 328 1023 556 1587 642 285 44 564 55 832 35z"/>
<path d="M2920 4403 c0 -599 -4 -962 -11 -1003 -12 -81 -55 -175 -104 -229
-21 -22 -67 -55 -103 -73 -63 -31 -73 -33 -177 -33 -100 0 -116 3 -172 29 -72
33 -135 95 -163 161 -21 48 -40 141 -40 192 l0 33 -226 0 -227 0 8 -92 c27
-349 208 -575 531 -665 93 -26 111 -28 294 -28 183 1 200 2 283 28 224 69 373
191 467 382 88 180 90 207 90 1308 l0 927 -225 0 -225 0 0 -937z"/>
<path d="M4730 5334 c-310 -45 -515 -142 -654 -313 -101 -123 -140 -247 -134
-425 6 -180 51 -286 174 -411 148 -152 313 -232 788 -384 360 -116 468 -209
470 -406 1 -68 -3 -88 -27 -137 -45 -91 -117 -146 -242 -184 -47 -15 -93 -19
-210 -19 -161 0 -230 13 -333 60 -110 50 -213 183 -227 293 -4 26 -9 59 -11
75 l-6 27 -235 0 -236 0 7 -62 c12 -117 27 -173 71 -264 111 -230 350 -395
680 -469 96 -22 398 -31 506 -16 114 16 250 53 331 90 200 90 342 251 389 441
9 33 14 105 13 180 -1 106 -5 137 -27 206 -32 98 -84 179 -163 257 -132 131
-309 219 -671 336 -281 91 -406 147 -481 218 -65 61 -91 119 -92 200 0 164
107 284 291 328 82 19 265 19 347 0 185 -44 297 -163 324 -346 l10 -69 235 0
235 0 -7 68 c-15 153 -74 299 -165 409 -134 162 -368 280 -620 313 -71 9 -276
11 -330 4z"/>
</g>
</svg>
